<svg width="32" height="32" viewBox="0 0 32 32" fill="none" xmlns="http://www.w3.org/2000/svg">
  <rect width="32" height="32" rx="8" fill="#0ea5e9"/>
  <g transform="translate(4, 4) scale(1)">
    <path d="M4.8 2.3A.3.3 0 1 1 5 2a.3.3 0 0 1-.2.3z" stroke="white" stroke-width="2" stroke-linecap="round" stroke-linejoin="round"/>
    <path d="M5 2v10a5 5 0 0 0 10 0V6a3 3 0 0 0-3-3 3 3 0 0 0-3 3v6a5 5 0 0 0 10 0V2" stroke="white" stroke-width="2" stroke-linecap="round" stroke-linejoin="round"/>
    <path d="M15 22a2 2 0 1 0 0-4 2 2 0 0 0 0 4z" stroke="white" stroke-width="2" stroke-linecap="round" stroke-linejoin="round"/>
  </g>
</svg>
